<?xml version="1.0" encoding="utf-8"?>
<!-- Generator: Adobe Illustrator 15.0.0, SVG Export Plug-In  -->
<!DOCTYPE svg PUBLIC "-//W3C//DTD SVG 1.1//EN" "http://www.w3.org/Graphics/SVG/1.1/DTD/svg11.dtd" [
	<!ENTITY ns_flows "http://ns.adobe.com/Flows/1.0/">
]>
<svg version="1.1"
	 xmlns="http://www.w3.org/2000/svg" xmlns:xlink="http://www.w3.org/1999/xlink" xmlns:a="http://ns.adobe.com/AdobeSVGViewerExtensions/3.0/"
	 x="0px" y="0px" width="358px" height="326px" viewBox="-0.964 -0.064 358 326"
	 overflow="visible" enable-background="new -0.964 -0.064 358 326" xml:space="preserve">
<defs>
</defs>
<path fill-rule="evenodd" clip-rule="evenodd" fill="#FFFFFF" d="M204,4.867c-5.904,0.757-8.096,0.757-14,0
	C192.423,1.775,202.022,0.169,204,4.867z"/>
<path fill-rule="evenodd" clip-rule="evenodd" fill="#FFFFFF" d="M166,4.867c2.689-0.689,1.933,2.067,3,3
	c3.766-0.234,4.234-3.766,8-4c-2.883,8.117-14.083,7.917-17,16C159.461,16.303,162.827,8.046,166,4.867z"/>
<path fill-rule="evenodd" clip-rule="evenodd" fill="#FFFFFF" d="M201,6.867c12.259-1.259,19.365,2.634,26,7
	c-3.648,2.931-6.424-3.538-11-3c-0.688,2.689,2.067,1.933,3,3c-6.445,10.059,0.547,23.935,10,23c0.281,1.615-0.945,1.722-1,3
	c3.059,0.725,2.941-1.725,6-1c2.654,7.264-3.524,12.703-7,17c-1.548-3.911,5.312-7.998,5-14c-2.647,3.02-5.191,6.142-7,10
	c-2.032-1.775,1.52-6.423,2-9c-6.204-1.149-14.663-7.747-12-21C210.01,17.19,202.044,15.49,201,6.867z"/>
<path fill-rule="evenodd" clip-rule="evenodd" fill="#FFFFFF" d="M196,29.867c-2.413-1.368-8.051,2.582-10,5
	c0.132-2.465,0.151-4.818-1-6c-3.062,3.129,0.876,7.741,0,12c-4.544-0.945-3.139-10.359-2-14c7.357-1.309,13.771-3.563,17-9
	c-2.503,0.125-3.131,1.909-4-1c-2.608,2.058-3.979,5.354-7,7c-2.503,0.169-3.131-1.536-4-3c-4.586,7.747-18.042,6.625-22,15
	c6.777-1.89,8.527-8.806,18-8c-0.319,2.348-1.58,3.753-1,7c-7.293,2.707-11.135,8.865-20,10c4.041-9.061-8.927-24.187,8-26
	c2.19-2.081-0.877-3.232,1-5c7.795-4.841,22.027-8.852,32-3c0.959,4.375,2.965,7.702,7,9c-0.317,3.35-1.03,6.304-3,8
	c0.658,2.995,2.138-0.956,4,0c-2.395,5.271-6.687,8.647-13,10c9.665,3.652,12.49-8.167,17-13c-0.15,8.183-5.811,10.856-10,15
	c4.375-0.958,7.701-2.965,9-7c3.349,5.036,12.029,8.771,8,18c-2.343-1.991-1.439-7.228-4-9c-8.038-0.247-16.037,7.522-23,2
	c-0.621-7.288,6.024-7.309,8-12c-4.877-3.175-6.397,7.1-11,4C190.095,31.962,194.041,31.909,196,29.867z"/>
<path fill-rule="evenodd" clip-rule="evenodd" fill="#FFFFFF" d="M222,14.867c8.574,3.759,11.628,13.039,14,23
	C224.341,36.626,212.47,25.559,222,14.867z"/>
<path fill-rule="evenodd" clip-rule="evenodd" fill="#FFFFFF" d="M230,16.867c0.667,0,1.333,0,2,0c9.251,3.749,10.771,15.229,10,29
	c1.655,5.222,9.687,7.553,6,15c-2.47-3.864-3.764-8.903-8-11c1.377-9.889,0.593-18.728-3-26c-2.169-0.168-0.453,3.547-1,5
	C233.909,24.958,232.821,20.046,230,16.867z"/>
<path fill-rule="evenodd" clip-rule="evenodd" fill="#FFFFFF" d="M156,30.867c4.904,4.208,2.259,12.888-3,15
	C151.902,38.769,155.495,36.362,156,30.867z"/>
<path fill-rule="evenodd" clip-rule="evenodd" fill="#FFFFFF" d="M186,44.867c-0.305,5.308-7.779,6.11-11,3
	c-1.961,4.388,11.828,5.63,14,1c8.938,4.275,16.93,0.043,25-2c2.203,4.492-1.293,8.47-4,11c3.38,0.38,4.267-1.733,6-3
	c2.641,3.032-3.666,5.624-4,9c1.578,1.835,3.402-4.541,6-5c2.182,3.227-4.405,6.228-5,10c5.488-0.897,12.175,3.002,19,1
	c-0.22,3.78-3.144,4.856-4,8c5.409,1.836-3.086,10.092-4,15c0.241,2.578,1.721-1.373,4,0c-8.813,17.79-27.844,9.984-46,8
	c0.521-1.479,1.479-2.521,2-4c-1.286-2.796-2.067,3.15-5,2c-0.204-6.796-6.899-7.101-5-16c-8.038-2.061-1.394-17.049-10-17
	c-4.092,0.023-4.008,3.719-6,8c-2.27-1.064-0.381-6.286-1-9c10.658-3.081,17.889,0.678,20,11c8.705-10.556-12.418-16.45-7-31
	C171.971,39.574,181.165,36.07,186,44.867z M184,55.867c8.102-2.99,14.809,1.075,20,4C204.677,51.224,187.86,50.909,184,55.867z
	 M186,61.867c0.844-0.938,5.156-3.355,6-1c-2.799,2.534-9.018,1.649-10,6c6.752-0.085,9.251,4.083,17,3c0.224-2.006-4.462-4.049-1-6
	c2.348,0.319,2.238,3.095,4,4c0.521-1.479,1.479-2.521,2-4C200.13,59.486,187.486,55.134,186,61.867z M204,80.867
	c3.658,1.475,7.188-0.625,11,2c0.426-1.907,2.857-1.81,2-5C211.659,80.083,207.751,77.888,204,80.867z M199,89.867
	c2.638,2.363,4.281,5.719,10,5c-0.558,2.039-3.009,1.961-1,4c6.61-0.121,3.297-5.146,10-6c1.019-4.352-2.068-4.598-3-7
	C209.312,88.762,201.418,83.475,199,89.867z"/>
<path fill-rule="evenodd" clip-rule="evenodd" fill="#FFFFFF" d="M238,38.867c2.992,2.735-1.335,6.608,0,11
	C232.233,47.868,238.067,43.618,238,38.867z"/>
<path fill-rule="evenodd" clip-rule="evenodd" fill="#FFFFFF" d="M246,43.867c5.972,0.028,7.985,4.015,8,10
	c-3.642,0.642-1.236-4.764-4-5c-1.484,0.437,0.395,1.28,0,3C247.378,50.489,245.671,48.197,246,43.867z"/>
<path fill-rule="evenodd" clip-rule="evenodd" fill="#FFFFFF" d="M167,44.867c1.155,4.985-1.313,15.665,5,18
	c-4.489,2.456-6.938-5.704-6-12c-3.485,0.515-1.466,6.534-2,10c-4.212-0.454-4.446-4.888-7-7
	C157.033,47.567,163.654,47.855,167,44.867z"/>
<path fill-rule="evenodd" clip-rule="evenodd" fill="#FFFFFF" d="M155,46.867c2.249,3.006-0.61,15.104,0,21
	C154.197,60.923,149.26,51.69,155,46.867z"/>
<path fill-rule="evenodd" clip-rule="evenodd" d="M204,59.867c-5.191-2.925-11.898-6.99-20-4
	C187.86,50.909,204.677,51.224,204,59.867z"/>
<path fill-rule="evenodd" clip-rule="evenodd" fill="#FFFFFF" d="M149,54.867c-0.724,2.276-0.892,5.108-2,7
	c-1.996-4.047-4.674-4.18-10-3C139.067,55.602,143.222,54.422,149,54.867z"/>
<path fill-rule="evenodd" clip-rule="evenodd" fill="#FFFFFF" d="M84,58.867c21.479-0.477,45.471,5.194,53,22
	C122.681,64.843,99.162,63.332,84,58.867z"/>
<path fill-rule="evenodd" clip-rule="evenodd" d="M204,63.867c-0.521,1.479-1.479,2.521-2,4c-1.762-0.905-1.652-3.681-4-4
	c-3.462,1.951,1.224,3.994,1,6c-7.749,1.083-10.248-3.085-17-3c0.982-4.351,7.201-3.466,10-6c-0.844-2.355-5.156,0.062-6,1
	C187.486,55.134,200.13,59.486,204,63.867z"/>
<path fill-rule="evenodd" clip-rule="evenodd" fill="#FFFFFF" d="M89,70.867c2.755-3.473-5.329-4.633-5-9
	c3.913,3.42,9.186,5.48,11,11c-2.567,6.1-11.484,5.85-20,6c2.464-3.536,8.712-3.288,10-8c-4.658-0.306-10.071,7.249-20,5
	c-0.88-3.213,3.296-1.37,3-4c-5.795,0.152-17.464,0.157-20-6C60.366,53.101,79.596,61.829,89,70.867z"/>
<path fill-rule="evenodd" clip-rule="evenodd" fill="#FFFFFF" d="M143,66.867c-1.163-0.163-1.779,0.221-2,1
	c-1.94-2.39,1.449-5.217-5-4C137.18,59.125,144.687,60.734,143,66.867z"/>
<path fill-rule="evenodd" clip-rule="evenodd" fill="#FFFFFF" d="M167,108.867c-16.518-5.149-23.602-19.732-29-36
	c2.488,0.154,3.096-1.571,5-2c0.851-0.184,0.943,0.39,1,1C140.129,94.375,178.761,88.224,167,108.867z"/>
<path fill-rule="evenodd" clip-rule="evenodd" fill="#FFFFFF" d="M150,70.867c4.891,3.874,1.652,10.15,6,15
	C150.354,84.966,147.033,77.126,150,70.867z"/>
<path fill-rule="evenodd" clip-rule="evenodd" fill="#FFFFFF" d="M167,70.867c-4.109,6.11,1.638,10.783,4,16
	c-6.936-1.398-9.41-7.257-11-14C163.658,73.525,163.836,70.703,167,70.867z"/>
<path fill-rule="evenodd" clip-rule="evenodd" d="M217,77.867c0.857,3.19-1.574,3.093-2,5c-3.812-2.625-7.342-0.525-11-2
	C207.751,77.888,211.659,80.083,217,77.867z"/>
<path fill-rule="evenodd" clip-rule="evenodd" fill="#FFFFFF" d="M285,83.867c-10.904,18.096-37.33,20.67-55,32
	C249.899,106.767,256.178,84.045,285,83.867z"/>
<path fill-rule="evenodd" clip-rule="evenodd" d="M215,85.867c0.932,2.402,4.019,2.648,3,7c-6.703,0.854-3.39,5.879-10,6
	c-2.009-2.039,0.442-1.961,1-4c-5.719,0.719-7.362-2.637-10-5C201.418,83.475,209.312,88.762,215,85.867z"/>
<path fill-rule="evenodd" clip-rule="evenodd" fill="#FFFFFF" d="M180,103.867c3.192,3.475,7.245,6.088,12,8
	c-0.405,5.072,2.372,6.961,4,10c2.355,0.022,2.944-1.723,6-1c0.986,2.347,1.754,4.913,2,8c2.739,1.447,6.23-0.909,5,6
	c2.343-1.99,6.363-2.304,11-2c-0.709,4.042,0.958,5.708,5,5c-3.454,7.268-17.143,17.854-8,28c3.675-0.325,5.533-2.467,9-3
	c0.898,1.768,2.414,2.919,3,5c3.716,0.382,2.614-4.053,7-3c-2.387,8.28-8.291,13.043-10,22c3.439,0.414,6.277-8.371,9-12
	c-0.48,6.547-2.76,13.77,2,19c-22.288,15.379-52.312,23.022-86,27c-1.886-9.555,1.651-21.438,3-31c4.547-4.119,13.989-3.345,15-11
	c-0.87-2.953-1.497,2.32-4,1c0-2,0-4,0-6c-0.89,0.443-1.789,0.878-2,2c-2.59-1.696,1.938-4.65,1-8c-3.461-1.759-3.876,8.097-9,8
	c-1.427-10.729-1.169-19.499,3-31c-4.137-0.137-1.566,6.434-7,5c-2.741-6.501,3.653-10.469,3-18c-2.998-1.758-5.293,4.293-10,4
	c0.393,3.607,1.294,6.706,2,10c-0.767,5.05-2.767-3.149-6-2c-3.786,2.87,4.836,8.979-1,11c0.068,2.932,2.286,3.714,4,5
	c-0.279,2.055-2.671,1.996-4,3c1.013,3.32,5.535,3.132,5,8c-2.667,0-5.333,0-8,0c-0.35,3.474,5.085,3.797,2,7
	c-4.746,0.413-5.254-3.413-10-3c-2.995,0.658,0.956,2.138,0,4c-2.656,0.011-5.711-0.378-7,1c1.092,2.908,0.936,7.064,3,9
	c-1.935,3.141-2.965-2.94-4-4c-2.079,2.921-0.372,9.629-2,13c-2.498-3.836,0.527-13.193-4-15c-1.601,7.057,0.371,10.318-1,18
	c-1.812,0.768-0.609-10.023-3-12c-2.27,1.063-0.381,6.286-1,9c-3.412-1.588-0.849-9.151-4-11c-3.224,5.776,2.568,20.568-6,21
	c1.332-4.421,4.68-9.588,2-15c-2.774,4.226-3.67,10.33-6,15c-0.356-4.202-1.516-9.45-5-13c-3.11,0.223-1.689,4.977-2,8
	c-2.977-1.356-4.152-4.515-6-7c4.294-7.705,14.285-19.257,24-15c2.168,0.169,0.453-3.547,1-5c3.146-0.5,3.909,2.18,6,0
	c0.458-3.124-2.137-3.197-5-3c13.045-19.288,21.348-43.319,44-53c3.502-0.168,3.148,3.519,5,5c5.437,0.103,10.327-0.339,13-3
	c-2.696-2.304-9.645-0.355-14-1C164.511,115.712,181.103,118.636,180,103.867z"/>
<path fill-rule="evenodd" clip-rule="evenodd" fill="#FFFFFF" d="M108,111.867c1.711-2.289,7.633-0.367,11-1
	c3.099,3.568,6.086,7.247,7,13c-3.413-2.254-5.003-6.331-8-9c-1.401,1.145,2.071,5.872,3,8c-0.946,3.467-10.53,2.23-13,1
	C108.617,118.321,112.939,115.613,108,111.867z"/>
<path fill-rule="evenodd" clip-rule="evenodd" fill="#FFFFFF" d="M257,130.867c-1.862,11.196,8.2,10.466,8,20
	c4.481,0.969,3.993,5.975,8,5c-1.662,3.005-0.754,8.58-2,12c3.34-0.203,2.65-5.048,5-1c1.666-1.334,1.553-4.447,3-6
	c1.079,5.763-4.43,13.558-11,15c-2.003-3.233,0.635-13.346-6-9c-0.663-5.26,0.758-18.509-7-13c0-2.333,0-4.667,0-7
	c-0.869-2.954-1.497,2.32-4,1c-1.621-5.045-2.847-10.487-4-16c-3.489,1.844-5.644,5.023-8,8c-4.731-3.866-7.496,2.114-11,5
	c-1.685-8.03,9.37-11.954,13-18c0.382-3.715-4.052-2.614-3-7C247.455,116.568,249.412,129.007,257,130.867z"/>
<path fill-rule="evenodd" clip-rule="evenodd" fill="#FFFFFF" d="M124,133.867c2.995-0.658-0.956-2.138,0-4
	c2.729-0.729,2.013,1.987,4,2c-0.837,3.829-2.356,6.977-6,8c-2.555-0.112-3.5-1.833-5-3c-3.883,1.244,0.652,5.107-3,7
	c-3.465-0.745-3.368-4.959-1-7c-1.289-3.711-6.287-3.713-6-9C112.374,126.41,118.959,131.725,124,133.867z"/>
<path fill-rule="evenodd" clip-rule="evenodd" fill="#FFFFFF" d="M327,147.867c-2.528,2.595-6.188,1.838-4,7
	c-2.651-0.015-5.889,0.555-6-2C318.229,149.097,322.203,148.07,327,147.867z"/>
<path fill-rule="evenodd" clip-rule="evenodd" fill="#FFFFFF" d="M342,147.867c-3.563,2.77-7.019,5.648-14,5
	C331.137,149.671,335.591,147.792,342,147.867z"/>
<path fill-rule="evenodd" clip-rule="evenodd" fill="#FFFFFF" d="M343,156.867c3.462-0.701,3.587,3.506,2,5
	C343.514,161.02,343.553,158.647,343,156.867z"/>
<path fill-rule="evenodd" clip-rule="evenodd" fill="#FFFFFF" d="M147,171.867c9.021,11.555-2.561,31.253,0,49
	c-19.502-0.498-36.874-3.127-50-10C125.42,209.621,132.732,187.266,147,171.867z"/>
<path fill-rule="evenodd" clip-rule="evenodd" fill="#FFFFFF" d="M251,175.867c3.799,0.535,4.769,3.898,6,7
	c-1.161,0.84-2.681,1.319-5,1C251.396,181.472,250.562,179.305,251,175.867z"/>
<path fill-rule="evenodd" clip-rule="evenodd" fill="#FFFFFF" d="M292,179.867c-9.113,4.777-12.706,15.957-20,24
	c-15.791,17.412-40.518,23.952-64,35c8.468-6.866,20.907-9.76,28-18c-19.239,2.798-35.144,26.731-56,15
	c7.452,0.119,12.137-2.53,19-3c-1.281,3.386-7.414,1.919-10,4c9.128,2.117,18.683-3.977,22-11c11.092-1.655,20.994-6.612,30-12
	c8.099-4.846,22.229-6.665,23-19c-3.1,7.003-14.143,11.052-21,11c-2.82,4.774-12.67,8.853-18,5c0.731-4.936,7.958-3.375,10-7
	c-15.714,4.288-27.74,20.925-52,20c29.268-9.732,52.484-25.516,80-37c-3.903,6.764-12.038,9.296-17,15
	C262.232,199.431,268.999,178.868,292,179.867z"/>
<path fill-rule="evenodd" clip-rule="evenodd" fill="#FFFFFF" d="M82,200.867c-1.685,3.982-5.391,5.942-11,6
	c-1.764-2.111-2.254-2.955-1-6c-1.454-1.546-5.119-0.881-8-1c3.198-2.664,6.471-1.379,11-1c-4.743-6.396-18.544-2.17-21,3
	C50.96,189.105,77.419,191.879,82,200.867z"/>
<path fill-rule="evenodd" clip-rule="evenodd" fill="#FFFFFF" d="M49,205.867c2.322-1.345,5.678-1.655,8-3
	c8.551,13.905,38.356,1.425,47,16c-29.155-0.42-66.926-8.219-90,3C12.395,208.031,38.053,191.876,49,205.867z"/>
<path fill-rule="evenodd" clip-rule="evenodd" fill="#FFFFFF" d="M232,271.867c-2.086,4.247-5.121,7.545-4,15
	c3.058-10.942,11.027-16.973,21-21c-0.424,2.09,0.686,2.648,1,4c1.666-1.334,1.553-4.447,3-6c2.152,0.848,3.537,2.463,3,6
	c-3.056,1.611-8.123,1.211-11,3c1.152,3.848,7.891,2.109,8,7c-3.868,0.535-4.882-1.785-9-1c0.087,3.246,5.963,0.704,5,5
	c-2.396,0.605-4.562,1.438-8,1c0.102,2.565,3.727,1.607,5,3c-0.92,1.746-3.126,2.207-6,2c1.145,1.74-1.779,5.574,0,10
	c-11.07,0.07-11.84-10.16-20-13c0-2.667,0-5.333,0-8c-4.09,0.577-1.747,7.586-4,10c-2.261-2.072-1.23-7.437-3-10
	c-3.219,3.834,2.031,9.979-1,14c-2.53-0.804-2.55-4.116-4-6c-3.814,4.789-4.493-2.788-8-4c-3.164-0.164-3.342,2.658-7,2
	c-1.02-1.313-0.98-3.687-2-5c-2.059,1.004-5.072,3.566-5-1c-1.734,1.599-2.166,4.501-2,8c-3.095-3.572-2.973-10.36-5-15
	c-2.614,1.387,0.486,8.486-2,10c-4.634-2.366-1.695-12.306-6-15c-1.749,3.131,1.745,14.252-6,14c-1.544-7.789-0.56-18.106-2-26
	c-2.156,3.844-2.505,9.495-3,15c-2.761-0.264-0.84-13.808-3-18c-1.948,4.386-0.44,12.227-3,16c-4.47-3.648,2.057-14.268-1-20
	c-4.43,2.57-0.398,13.602-7,14c-0.329-7.748-5.941-14.156-4-21c-1.544-2.438-2.877,3.711-4,5c-1.342-0.658-1.862-2.138-2-4
	c-2.092,0.003-3.758,5.447-5,3c2.42-13.247,16.62-14.714,26-21c10.915,7.085,20.986,15.015,29,25
	C207.379,250.488,210.896,269.971,232,271.867z"/>
<path fill-rule="evenodd" clip-rule="evenodd" fill="#FFFFFF" d="M278,224.867c-5.011,3.655-12.55,4.783-16,10
	c11.103-6.32,28.234-9.964,38,0c-2.233,2.1-1.33,7.337-4,9c0.92,2.726,3.126-1.396,6,0c0.044,1.71-0.743,2.59-2,3
	c14.604,10.729,21.021,29.646,27,49c-7.623,0.377-11.021,4.979-14,10c5.311-1.035,11.537-9.787,24-7c0.408,5.592,8.84,3.16,9,9
	c-4.602-0.064-6.491-2.842-10-4c-4.558,1.108-7.527,3.806-9,8c-3.19,0.857-3.093-1.574-5-2c-1.577,2.089-0.693,6.641-2,9
	c-1.85-0.15-0.614-3.387-2-4c-2.923,0.744-1.936,5.398-6,5c-3.144-15.189-14.448-22.218-16-39c-2.28,1.387-0.373,6.961-1,10
	c-4.315-0.685-0.92-9.08-2-13c-4.423,0.577-0.961,9.039-6,9c1.292-4.041,2.139-8.528,2-14c-2.981,1.686-2.537,6.796-3,11
	c-4.626-0.142-2.979-8.097-2-11c-2.152-6.848-12.307-5.693-12-15c-3.008-1.008-1.772,2.228-2,4c-4.54-1.46-6.173-5.827-10-8
	c-2.565,0.102-1.607,3.727-3,5c-3.16-0.506-1.621-5.712-4-7c-2.476,0.965,1.378,3.84,0,7c-4.371,0.705-2.131-5.202-5-6
	c-1.559,2.441-1.793,6.207-4,8c-4.823-6.586,2.269-17.419,4-24c-7.347,5.32-13.38,11.953-18,20c1.787-14.879,12.811-20.523,23-27
	c2.712,1.506-1.592,4.314-2,6c3.942,0.275,3.058-4.275,7-4c-0.294,2.039-2.706,1.961-3,4
	C260.854,234.378,265.917,223.458,278,224.867z"/>
<path fill-rule="evenodd" clip-rule="evenodd" fill="#FFFFFF" d="M357,308.867c0,5.667,0,11.333,0,17c-12.333,0-24.667,0-37,0
	c15.659-2.007,25.019-10.314,36-17C356.333,308.867,356.667,308.867,357,308.867z"/>
<path fill-rule="evenodd" clip-rule="evenodd" d="M357,306.867c0,0.667,0,1.333,0,2c-0.333,0-0.667,0-1,0
	c-10.981,6.686-20.341,14.993-36,17c-1.667,0-3.333,0-5,0c-7.047-0.085-8.467-12.011-13-18c-2.938-3.882-11.889-9.356-16-15
	c-6.785-9.314-8.99-25.524-19-24c-5.67,0.863-5.805,8.721-9,15c-4.04,7.939-12.821,19.561-20,20c-3.405,0.208-7.591-3.412-11-4
	c-11.582-1.998-23.781,1.292-35,0c-11.167-1.286-23.63-8.908-33-16c-13.594-10.289-28.175-15.271-31-34
	c-17.154-1.078-24.557-14.254-37-22c-21.962-13.673-56.705-6.525-85-2c6.711-16.574,17.211-33.729,41-30
	c8.154-9.66,21.357-1.436,32-4c4.389-1.058,8.03-9.432,14-13c6.464-3.863,13.721-6.404,14-16c-1.27-1.85-9.237,0.875-11-3
	c-1.129-7.503-3.377-18.11,1-26c-4.219,0.447-5.392,3.941-11,3c-1.296-8.037-8.357-10.31-14-14c-7.523-15.55,13.104-21.912,16-30
	c-8.792,0.542-13.34,5.327-21,7c-2.132-2.201-2.847-5.82-7-6c-3.019,1.314-7.981,0.686-11,2c-5.246-7.626-17.78-2.062-20-13
	c6.45-6.13,19.938-8.583,32-6c-2.564-6.953-10.395-3.342-16-4c-13.976-1.641-28.764-7.637-39-13c3.969-9.232-3.894-10.123-6-16
	c11.164-4.027,23.191-2.942,34-2c8.935,0.779,18.096,3.817,27,6c8.411,2.062,17.544,6.394,25,7c2.469,0.201,6.442-1.424,9-1
	c9.14,1.517,15.861,10.051,27,7c6.194,2.14,7.035,9.632,15,10c-2.3-4.7-8.382-5.618-10-11c2.34-10.993,16.407-10.26,22-18
	c-1.824-0.777,0.599-1.075,2-1c-0.372-4.628-4.332-5.668-5-10c0.845-2.155,4.387-1.613,6-3c-0.487-5.802-12.394-10.613-4-16
	c-0.977,2.583-2.116,7.917,2,8c1.953,1.834,5.596-0.28,8-1c-4.032-14.36,13.702-24.879,25-15c13.11-8.143,29.576-0.917,44,1
	c1.821,7.179,10.325,7.675,13,14c1.816,10.85,9.764,15.569,12,26c4.275,1.542,5.098-5.479,7-3c0.628,5.902-5.325,13.824,0,18
	c3.425-2.051-0.854-6.604,3-7c0,2.333,0,4.667,0,7c3.884,0.501,6.534-5.4,9-3c-3.194,11.946-15.07,10.022-13,24
	c-7.129,0.978-6.933,2.363-11-2c-2.338,1.996,1.195,9.861-3,10c0.693-0.807,1.556-2.739,0-3c-0.438,4.895-5.85,4.817-6,10
	c-0.866,4.533,4.995,2.339,5,6c-6.69,1.357-9.356-1.31-8-8c-5.646,4.688-10.533,10.134-13,18c8.75,3.762,16.301-4.427,22-9
	c11.93-9.572,19.418-24.089,44-22c12.002,12.163-19.189,33.55-31,41c7.858,17.475,23.322,27.344,36,40
	c6.361-2.639,12.907-5.093,21-6c-1.465-14.315,18.936-11.48,30-10c1.564,3.159-0.551,4.39-1,8c2.356,0.977,6.344,0.323,6,4
	c-2.664,7.775,4.519,11.364,7,17c-1.731,3.393-8.254-0.229-8,3c0.442,5.891,4.417,8.249,5,14c-2.007,3.297-8.173,6.742-12,5
	c-5.164-5.838-3.949-15.942-11-18c-15.042-4.389-28.739,22.843-47,15c-4.953,8.714-12.196,15.137-17,24
	c18.452,3.826,30.738,8.747,40,21c12.893,17.057,14.402,43.008,30,58c3.979,2.465,6.499-3.796,12-3
	C352.183,297.018,354.552,301.982,357,306.867z M160,19.867c2.917-8.083,14.117-7.883,17-16c-3.766,0.234-4.234,3.766-8,4
	c-1.067-0.933-0.311-3.689-3-3C162.827,8.046,159.461,16.303,160,19.867z M190,4.867c5.904,0.757,8.096,0.757,14,0
	C202.022,0.169,192.423,1.775,190,4.867z M215,21.867c-2.663,13.253,5.796,19.851,12,21c-0.48,2.577-4.032,7.225-2,9
	c1.809-3.858,4.353-6.98,7-10c0.312,6.002-6.548,10.089-5,14c3.476-4.297,9.654-9.736,7-17c-3.059-0.725-2.941,1.725-6,1
	c0.055-1.278,1.281-1.385,1-3c-9.453,0.935-16.445-12.941-10-23c-0.933-1.067-3.688-0.311-3-3c4.576-0.538,7.352,5.931,11,3
	c-6.635-4.366-13.741-8.259-26-7C202.044,15.49,210.01,17.19,215,21.867z M190,35.867c4.603,3.1,6.123-7.175,11-4
	c-1.976,4.691-8.621,4.712-8,12c6.963,5.522,14.962-2.247,23-2c2.561,1.772,1.657,7.009,4,9c4.029-9.229-4.651-12.964-8-18
	c-1.299,4.035-4.625,6.042-9,7c4.189-4.144,9.85-6.817,10-15c-4.51,4.833-7.335,16.652-17,13c6.313-1.353,10.605-4.729,13-10
	c-1.862-0.956-3.342,2.995-4,0c1.97-1.696,2.683-4.65,3-8c-4.035-1.298-6.041-4.625-7-9c-9.973-5.852-24.205-1.841-32,3
	c-1.877,1.768,1.19,2.919-1,5c-16.927,1.813-3.959,16.939-8,26c8.865-1.135,12.707-7.293,20-10c-0.58-3.247,0.681-4.652,1-7
	c-9.473-0.806-11.223,6.11-18,8c3.958-8.375,17.414-7.253,22-15c0.869,1.464,1.497,3.169,4,3c3.021-1.646,4.392-4.942,7-7
	c0.869,2.909,1.497,1.125,4,1c-3.229,5.437-9.643,7.691-17,9c-1.139,3.641-2.544,13.055,2,14c0.876-4.259-3.062-8.871,0-12
	c1.151,1.182,1.132,3.535,1,6c1.949-2.418,7.587-6.368,10-5C194.041,31.909,190.095,31.962,190,35.867z M236,37.867
	c-2.372-9.961-5.426-19.241-14-23C212.47,25.559,224.341,36.626,236,37.867z M236,28.867c0.547-1.453-1.169-5.168,1-5
	c3.593,7.272,4.377,16.111,3,26c4.236,2.097,5.53,7.136,8,11c3.687-7.447-4.345-9.778-6-15c0.771-13.771-0.749-25.251-10-29
	c-0.667,0-1.333,0-2,0C232.821,20.046,233.909,24.958,236,28.867z M153,45.867c5.259-2.112,7.904-10.792,3-15
	C155.495,36.362,151.902,38.769,153,45.867z M170,44.867c-5.418,14.55,15.705,20.444,7,31c-2.111-10.322-9.342-14.081-20-11
	c0.619,2.714-1.27,7.936,1,9c1.992-4.281,1.908-7.977,6-8c8.606-0.049,1.962,14.939,10,17c-1.899,8.899,4.796,9.204,5,16
	c2.933,1.15,3.714-4.796,5-2c-0.521,1.479-1.479,2.521-2,4c18.156,1.984,37.187,9.79,46-8c-2.279-1.373-3.759,2.578-4,0
	c0.914-4.908,9.409-13.164,4-15c0.856-3.144,3.78-4.22,4-8c-6.825,2.002-13.512-1.897-19-1c0.595-3.772,7.182-6.773,5-10
	c-2.598,0.459-4.422,6.835-6,5c0.334-3.376,6.641-5.968,4-9c-1.733,1.267-2.62,3.38-6,3c2.707-2.53,6.203-6.508,4-11
	c-8.07,2.043-16.062,6.275-25,2c-2.172,4.63-15.961,3.388-14-1c3.221,3.11,10.695,2.308,11-3
	C181.165,36.07,171.971,39.574,170,44.867z M238,49.867c-1.335-4.392,2.992-8.265,0-11C238.067,43.618,232.233,47.868,238,49.867z
	 M250,51.867c0.395-1.72-1.484-2.563,0-3c2.764,0.236,0.358,5.642,4,5c-0.015-5.985-2.028-9.972-8-10
	C245.671,48.197,247.378,50.489,250,51.867z M62,50.867c-13.202-1.727-27.517-5.058-36-6c-8.218-0.913-12.709-1.423-17,0
	c13.601-4.511,40.896,11.201,56,9c-2.172,3.186-14.317,1.649-12,6c5.586-3.747,15.641-3.026,25-3
	C74.875,52.007,68.095,51.664,62,50.867z M157,53.867c2.554,2.112,2.788,6.546,7,7c0.534-3.466-1.485-9.485,2-10
	c-0.938,6.296,1.511,14.456,6,12c-6.313-2.335-3.845-13.015-5-18C163.654,47.855,157.033,47.567,157,53.867z M155,67.867
	c-0.61-5.896,2.249-17.994,0-21C149.26,51.69,154.197,60.923,155,67.867z M221,61.867c6.857,0.505,13.286-4.689,12-9
	C232.009,58.876,224.393,58.259,221,61.867z M137,58.867c5.326-1.18,8.004-1.047,10,3c1.108-1.892,1.276-4.724,2-7
	C143.222,54.422,139.067,55.602,137,58.867z M137,80.867c-7.529-16.806-31.521-22.477-53-22
	C99.162,63.332,122.681,64.843,137,80.867z M48,65.867c2.536,6.157,14.205,6.152,20,6c0.296,2.63-3.88,0.787-3,4
	c9.929,2.249,15.342-5.306,20-5c-1.288,4.712-7.536,4.464-10,8c8.516-0.15,17.433,0.1,20-6c-1.814-5.52-7.087-7.58-11-11
	c-0.329,4.367,7.755,5.527,5,9C79.596,61.829,60.366,53.101,48,65.867z M136,63.867c6.449-1.217,3.06,1.61,5,4
	c0.221-0.779,0.837-1.163,2-1C144.687,60.734,137.18,59.125,136,63.867z M101,70.867c3.745,3.922,7.33,8.003,9,14
	c-5.662-3.672-6.748-11.918-13-15c0.641,4.693,5.936,4.731,6,10c-5.904,5-13.142,5.986-10,18c6.193,0.807,7.805,6.195,13,8
	c5.606-1.435,10.9-3.524,17-2c-0.753,3.247-6.455,1.545-7,5c5.232,0.232,6.507-3.493,12-3c-0.622,2.711-4.178,2.489-4,6
	c1.827,2.506,2.081,6.586,5,8c0.22-3.22-1.769-4.231-1-8c3.101,0.282,3.815,8.118,7,5c-1.622,0.715-1.622-4.715,0-4
	c4.721,7.952,25.833,4.453,32-1c-11.749-3.251-18.863-11.138-28-17c-0.575,1.758,1.208,5.875-1,6c-2.472-2.861-2.292-8.374-6-10
	c-0.595,2.072,1.236,6.569-1,7c-1.299-2.761-0.725-6.679-5-4c-0.662-4.671-1.887-8.78-5-11c-0.004,3.062,4.008,7.248,1,10
	c-4.012-7.994-6.938-22.387-15-23c3.543,4.137,9.779,10.869,8,17C112.07,80.455,106.237,71.643,101,70.867z M144,71.867
	c-0.057-0.61-0.149-1.184-1-1c-1.904,0.429-2.512,2.154-5,2c5.398,16.268,12.482,30.851,29,36
	C178.761,88.224,140.129,94.375,144,71.867z M156,85.867c-4.348-4.85-1.109-11.126-6-15C147.033,77.126,150.354,84.966,156,85.867z
	 M160,72.867c1.59,6.743,4.064,12.602,11,14c-2.362-5.217-8.109-9.89-4-16C163.836,70.703,163.658,73.525,160,72.867z M230,115.867
	c17.67-11.33,44.096-13.904,55-32C256.178,84.045,249.899,106.767,230,115.867z M253,120.867c4.615-5.393,16.92-8.402,16-16
	c-2.736,2.952-7.264,9.374-10,9c3.091-5.587,12.497-10.155,13-15C265.316,105.85,256.84,111.04,253,120.867z M156,120.867
	c4.355,0.645,11.304-1.304,14,1c-2.673,2.661-7.563,3.103-13,3c-1.852-1.481-1.498-5.168-5-5c-22.652,9.681-30.955,33.712-44,53
	c2.863-0.197,5.458-0.124,5,3c-2.091,2.18-2.854-0.5-6,0c-0.547,1.453,1.168,5.169-1,5c-9.715-4.257-19.706,7.295-24,15
	c1.848,2.485,3.023,5.644,6,7c0.311-3.023-1.11-7.777,2-8c3.484,3.55,4.644,8.798,5,13c2.33-4.67,3.226-10.774,6-15
	c2.68,5.412-0.668,10.579-2,15c8.568-0.432,2.776-15.224,6-21c3.151,1.849,0.588,9.412,4,11c0.619-2.714-1.27-7.937,1-9
	c2.391,1.977,1.188,12.768,3,12c1.371-7.682-0.601-10.943,1-18c4.527,1.807,1.502,11.164,4,15c1.628-3.371-0.079-10.079,2-13
	c1.035,1.06,2.065,7.141,4,4c-2.064-1.936-1.908-6.092-3-9c1.289-1.378,4.344-0.989,7-1c0.956-1.862-2.995-3.342,0-4
	c4.746-0.413,5.254,3.413,10,3c3.085-3.203-2.35-3.526-2-7c2.667,0,5.333,0,8,0c0.535-4.868-3.987-4.68-5-8
	c1.329-1.004,3.721-0.945,4-3c-1.714-1.286-3.932-2.068-4-5c5.836-2.021-2.786-8.13,1-11c3.233-1.149,5.233,7.05,6,2
	c-0.706-3.294-1.607-6.393-2-10c4.707,0.293,7.002-5.758,10-4c0.653,7.531-5.741,11.499-3,18c5.434,1.434,2.863-5.137,7-5
	c-4.169,11.501-4.427,20.271-3,31c5.124,0.097,5.539-9.759,9-8c0.938,3.35-3.59,6.304-1,8c0.211-1.122,1.11-1.557,2-2c0,2,0,4,0,6
	c2.503,1.32,3.13-3.953,4-1c-1.011,7.655-10.453,6.881-15,11c-1.349,9.562-4.886,21.445-3,31c33.688-3.978,63.712-11.621,86-27
	c-4.76-5.23-2.48-12.453-2-19c-2.723,3.629-5.561,12.414-9,12c1.709-8.957,7.613-13.72,10-22c-4.386-1.053-3.284,3.382-7,3
	c-0.586-2.081-2.102-3.232-3-5c-3.467,0.533-5.325,2.675-9,3c-9.143-10.146,4.546-20.732,8-28c-4.042,0.708-5.709-0.958-5-5
	c-4.637-0.304-8.657,0.01-11,2c1.23-6.909-2.261-4.553-5-6c-0.246-3.087-1.014-5.653-2-8c-3.056-0.723-3.645,1.022-6,1
	c-1.628-3.039-4.405-4.928-4-10c-4.755-1.912-8.808-4.525-12-8C181.103,118.636,164.511,115.712,156,120.867z M108,123.867
	c2.47,1.23,12.054,2.467,13-1c-0.929-2.128-4.401-6.855-3-8c2.997,2.669,4.587,6.746,8,9c-0.914-5.753-3.901-9.432-7-13
	c-3.367,0.633-9.289-1.289-11,1C112.939,115.613,108.617,118.321,108,123.867z M238,119.867c-1.052,4.386,3.382,3.285,3,7
	c-3.63,6.046-14.685,9.97-13,18c3.504-2.886,6.269-8.866,11-5c2.356-2.977,4.511-6.156,8-8c1.153,5.513,2.379,10.955,4,16
	c2.503,1.32,3.131-3.954,4-1c0,2.333,0,4.667,0,7c7.758-5.509,6.337,7.74,7,13c6.635-4.346,3.997,5.767,6,9
	c6.57-1.442,12.079-9.237,11-15c-1.447,1.553-1.334,4.666-3,6c-2.35-4.048-1.66,0.797-5,1c1.246-3.42,0.338-8.995,2-12
	c-4.007,0.975-3.519-4.031-8-5c0.2-9.534-9.862-8.804-8-20C249.412,129.007,247.455,116.568,238,119.867z M107,127.867
	c-0.287,5.287,4.711,5.289,6,9c-2.368,2.041-2.465,6.255,1,7c3.652-1.893-0.883-5.756,3-7c1.5,1.167,2.445,2.888,5,3
	c3.644-1.023,5.163-4.171,6-8c-1.987-0.013-1.271-2.729-4-2c-0.956,1.862,2.995,3.342,0,4
	C118.959,131.725,112.374,126.41,107,127.867z M317,152.867c0.111,2.555,3.349,1.985,6,2c-2.188-5.162,1.472-4.405,4-7
	C322.203,148.07,318.229,149.097,317,152.867z M328,152.867c6.981,0.648,10.437-2.23,14-5
	C335.591,147.792,331.137,149.671,328,152.867z M335,156.867c-30.023-0.271-53.223,14.714-75,26c18.362-3.698,62.482-16.331,85-2
	C342.739,171.794,340.487,162.713,335,156.867z M345,161.867c1.587-1.494,1.462-5.701-2-5
	C343.553,158.647,343.514,161.02,345,161.867z M97,210.867c13.126,6.873,30.498,9.502,50,10c-2.561-17.747,9.021-37.445,0-49
	C132.732,187.266,125.42,209.621,97,210.867z M252,183.867c2.319,0.319,3.839-0.16,5-1c-1.231-3.102-2.201-6.465-6-7
	C250.562,179.305,251.396,181.472,252,183.867z M246,201.867c4.962-5.704,13.097-8.236,17-15c-27.516,11.484-50.732,27.268-80,37
	c24.26,0.925,36.286-15.712,52-20c-2.042,3.625-9.269,2.064-10,7c5.33,3.853,15.18-0.226,18-5c6.857,0.052,17.9-3.997,21-11
	c-0.771,12.335-14.901,14.154-23,19c-9.006,5.388-18.908,10.345-30,12c-3.317,7.023-12.872,13.117-22,11
	c2.586-2.081,8.719-0.614,10-4c-6.863,0.47-11.548,3.119-19,3c20.856,11.731,36.761-12.202,56-15c-7.093,8.24-19.532,11.134-28,18
	c23.482-11.048,48.209-17.588,64-35c7.294-8.043,10.887-19.223,20-24C268.999,178.868,262.232,199.431,246,201.867z M52,201.867
	c2.456-5.17,16.257-9.396,21-3c-4.529-0.379-7.802-1.664-11,1c2.881,0.119,6.546-0.546,8,1c-1.254,3.045-0.764,3.889,1,6
	c5.609-0.058,9.315-2.018,11-6C77.419,191.879,50.96,189.105,52,201.867z M14,221.867c23.074-11.219,60.845-3.42,90-3
	c-8.644-14.575-38.449-2.095-47-16c-2.322,1.345-5.678,1.655-8,3C38.053,191.876,12.395,208.031,14,221.867z M186,248.867
	c-8.014-9.985-18.085-17.915-29-25c-9.38,6.286-23.58,7.753-26,21c1.242,2.447,2.908-2.997,5-3c0.138,1.862,0.658,3.342,2,4
	c1.123-1.289,2.456-7.438,4-5c-1.941,6.844,3.671,13.252,4,21c6.602-0.398,2.57-11.43,7-14c3.057,5.732-3.47,16.352,1,20
	c2.56-3.773,1.052-11.614,3-16c2.16,4.192,0.239,17.736,3,18c0.495-5.505,0.844-11.156,3-15c1.44,7.894,0.456,18.211,2,26
	c7.745,0.252,4.251-10.869,6-14c4.305,2.694,1.366,12.634,6,15c2.486-1.514-0.614-8.613,2-10c2.027,4.64,1.905,11.428,5,15
	c-0.166-3.499,0.266-6.401,2-8c-0.072,4.566,2.941,2.004,5,1c1.02,1.313,0.98,3.687,2,5c3.658,0.658,3.836-2.164,7-2
	c3.507,1.212,4.186,8.789,8,4c1.45,1.884,1.47,5.196,4,6c3.031-4.021-2.219-10.166,1-14c1.77,2.563,0.739,7.928,3,10
	c2.253-2.414-0.09-9.423,4-10c0,2.667,0,5.333,0,8c8.16,2.84,8.93,13.07,20,13c-1.779-4.426,1.145-8.26,0-10
	c2.874,0.207,5.08-0.254,6-2c-1.273-1.393-4.898-0.435-5-3c3.438,0.438,5.604-0.395,8-1c0.963-4.296-4.913-1.754-5-5
	c4.118-0.785,5.132,1.535,9,1c-0.109-4.891-6.848-3.152-8-7c2.877-1.789,7.944-1.389,11-3c0.537-3.537-0.848-5.152-3-6
	c-1.447,1.553-1.334,4.666-3,6c-0.314-1.352-1.424-1.91-1-4c-9.973,4.027-17.942,10.058-21,21c-1.121-7.455,1.914-10.753,4-15
	C210.896,269.971,207.379,250.488,186,248.867z M255,235.867c0.294-2.039,2.706-1.961,3-4c-3.942-0.275-3.058,4.275-7,4
	c0.408-1.686,4.712-4.494,2-6c-10.189,6.477-21.213,12.121-23,27c4.62-8.047,10.653-14.68,18-20c-1.731,6.581-8.823,17.414-4,24
	c2.207-1.793,2.441-5.559,4-8c2.869,0.798,0.629,6.705,5,6c1.378-3.16-2.476-6.035,0-7c2.379,1.288,0.84,6.494,4,7
	c1.393-1.273,0.435-4.898,3-5c3.827,2.173,5.46,6.54,10,8c0.228-1.772-1.008-5.008,2-4c-0.307,9.307,9.848,8.152,12,15
	c-0.979,2.903-2.626,10.858,2,11c0.463-4.204,0.019-9.314,3-11c0.139,5.472-0.708,9.959-2,14c5.039,0.039,1.577-8.423,6-9
	c1.08,3.92-2.315,12.315,2,13c0.627-3.039-1.28-8.613,1-10c1.552,16.782,12.856,23.811,16,39c4.064,0.398,3.077-4.256,6-5
	c1.386,0.613,0.15,3.85,2,4c1.307-2.359,0.423-6.911,2-9c1.907,0.426,1.81,2.857,5,2c1.473-4.194,4.442-6.892,9-8
	c3.509,1.158,5.398,3.936,10,4c-0.16-5.84-8.592-3.408-9-9c-12.463-2.787-18.689,5.965-24,7c2.979-5.021,6.377-9.623,14-10
	c-5.979-19.354-12.396-38.271-27-49c1.257-0.41,2.044-1.29,2-3c-2.874-1.396-5.08,2.726-6,0c2.67-1.663,1.767-6.9,4-9
	c-9.766-9.964-26.897-6.32-38,0c3.45-5.217,10.989-6.345,16-10C265.917,223.458,260.854,234.378,255,235.867z"/>
<path fill-rule="evenodd" clip-rule="evenodd" fill="#FFFFFF" d="M78,56.867c-9.359-0.026-19.414-0.747-25,3
	c-2.317-4.351,9.828-2.814,12-6c-15.104,2.201-42.399-13.511-56-9c4.291-1.423,8.782-0.913,17,0c8.483,0.942,22.798,4.273,36,6
	C68.095,51.664,74.875,52.007,78,56.867z"/>
<path fill-rule="evenodd" clip-rule="evenodd" fill="#FFFFFF" d="M233,52.867c1.286,4.311-5.143,9.505-12,9
	C224.393,58.259,232.009,58.876,233,52.867z"/>
<path fill-rule="evenodd" clip-rule="evenodd" fill="#FFFFFF" d="M115,86.867c1.779-6.131-4.457-12.863-8-17
	c8.062,0.613,10.988,15.006,15,23c3.008-2.752-1.004-6.938-1-10c3.113,2.22,4.338,6.329,5,11c4.275-2.679,3.701,1.239,5,4
	c2.236-0.431,0.405-4.928,1-7c3.708,1.626,3.528,7.139,6,10c2.208-0.125,0.425-4.242,1-6c9.137,5.862,16.251,13.749,28,17
	c-6.167,5.453-27.279,8.952-32,1c-1.622-0.715-1.622,4.715,0,4c-3.185,3.118-3.899-4.718-7-5c-0.769,3.769,1.22,4.78,1,8
	c-2.919-1.414-3.173-5.494-5-8c-0.178-3.511,3.378-3.289,4-6c-5.493-0.493-6.768,3.232-12,3c0.545-3.455,6.247-1.753,7-5
	c-6.1-1.524-11.394,0.565-17,2c-5.195-1.805-6.807-7.193-13-8c-3.142-12.014,4.096-13,10-18c-0.064-5.269-5.359-5.307-6-10
	c6.252,3.082,7.338,11.328,13,15c-1.67-5.997-5.255-10.078-9-14C106.237,71.643,112.07,80.455,115,86.867z"/>
<path fill-rule="evenodd" clip-rule="evenodd" fill="#FFFFFF" d="M272,98.867c-0.503,4.845-9.909,9.413-13,15
	c2.736,0.374,7.264-6.048,10-9c0.92,7.598-11.385,10.607-16,16C256.84,111.04,265.316,105.85,272,98.867z"/>
<path fill-rule="evenodd" clip-rule="evenodd" fill="#FFFFFF" d="M345,180.867c-22.518-14.331-66.638-1.698-85,2
	c21.777-11.286,44.977-26.271,75-26C340.487,162.713,342.739,171.794,345,180.867z"/>
</svg>
